Coordinates
version=1
nRows=13
nColumns=22
inDegrees=yes

Units are S.I. units (second, meters, Newtons, ...)
If the header above contains a line with 'inDegrees', this indicates whether rotational values are in degrees (yes) or radians (no).

endheader
time	pelvis_tilt	pelvis_list	pelvis_rotation	pelvis_tx	pelvis_ty	pelvis_tz	hip_flexion_r	hip_adduction_r	hip_rotation_r	knee_angle_r	ankle_angle_r	subtalar_angle_r	hip_flexion_l	hip_adduction_l	hip_rotation_l	knee_angle_l	ankle_angle_l	subtalar_angle_l	lumbar_extension	lumbar_bending	lumbar_rotation
      1.19000000	     -5.11421092	     -4.07201338	     -3.09502530	     -1.16441101	      0.95330471	      0.02596026	      8.46799900	      3.81782265	     -2.22582968	    -14.65400740	     11.89712627	     -1.68669741	     11.46936565	     -4.52288446	     -3.98363436	    -23.12629225	     15.09389907	     -4.31269129	     -4.09655501	      2.79588290	      0.97431576
      1.20000000	     -5.14120456	     -4.00932865	     -2.90233268	     -1.16381659	      0.95307791	      0.02436630	      8.76757046	      3.62187904	     -2.36626638	    -15.21119735	     12.08906972	     -1.44637231	     11.44968691	     -4.32435095	     -3.78741537	    -23.05386417	     15.14594670	     -4.38973698	     -4.13648355	      2.72948668	      0.90631407
      1.21000000	     -5.10886352	     -3.90605650	     -2.70235710	     -1.16317724	      0.95289715	      0.02271354	      9.07776187	      3.37533931	     -2.48087791	    -15.90481705	     12.31988127	     -1.37203374	     11.35310977	     -4.07845974	     -3.61238593	    -22.96470510	     15.22513693	     -4.42329428	     -4.24737998	      2.61284812	      0.81716794
      1.22000000	     -5.15182046	     -3.79177553	     -2.48560110	     -1.16261140	      0.95255700	      0.02100717	      9.59125449	      3.11072823	     -2.58836590	    -16.81229699	     12.56281230	     -1.07087888	     11.36272630	     -3.81500478	     -3.37309422	    -22.91111479	     15.23012091	     -4.49866902	     -4.28021559	      2.48539625	      0.70797940
      1.23000000	     -5.14227884	     -3.63553935	     -2.27914686	     -1.16199836	      0.95224672	      0.01928541	     10.15861089	      2.79609668	     -2.66137486	    -17.91866553	     12.82014895	     -0.83068856	     11.29532569	     -3.50915921	     -3.17937666	    -22.83312638	     15.27682714	     -4.54892650	     -4.37696389	      2.30618680	      0.58294477
      1.24000000	     -5.11965377	     -3.44910891	     -2.08192977	     -1.16137726	      0.95190659	      0.01757864	     10.84428873	      2.44803074	     -2.70448733	    -19.25945481	     13.06849754	     -0.60856536	     11.20608519	     -3.17534157	     -3.00506433	    -22.74895034	     15.32654366	     -4.58172771	     -4.49442695	      2.08661750	      0.44358710
      1.25000000	     -5.07471816	     -3.23289348	     -1.89876349	     -1.16075477	      0.95154897	      0.01590989	     11.64613583	      2.06944825	     -2.71552272	    -20.84635898	     13.28666767	     -0.39014436	     11.08877899	     -2.81656307	     -2.85938648	    -22.66435388	     15.37887734	     -4.59584578	     -4.64719284	      1.82735338	      0.28806890
      1.26000000	     -4.96582110	     -2.98309253	     -1.73522038	     -1.16008459	      0.95125410	      0.01430828	     12.51620429	      1.65758988	     -2.70551841	    -22.67409986	     13.46484425	     -0.26417768	     10.87546783	     -2.42747780	     -2.73873622	    -22.54526632	     15.41143980	     -4.57465444	     -4.88193605	      1.51984595	      0.12798707
      1.27000000	     -4.91318648	     -2.74115153	     -1.60135091	     -1.15943389	      0.95083181	      0.01280569	     13.60124291	      1.25796977	     -2.70545542	    -24.76169902	     13.50644492	      0.04732306	     10.73968258	     -2.06570110	     -2.67972998	    -22.46222429	     15.49157468	     -4.56264316	     -5.06048963	      1.21924995	     -0.04377016
      1.28000000	     -4.71605485	     -2.46818958	     -1.48579170	     -1.15864195	      0.95063213	      0.01140468	     14.62566998	      0.82772842	     -2.71152359	    -27.01325198	     13.47344739	      0.15792336	     10.39719015	     -1.67219066	     -2.63246102	    -22.30830554	     15.52967767	     -4.51246747	     -5.41000873	      0.87137478	     -0.22852293
      1.29000000	     -4.52907172	     -2.21342633	     -1.39600425	     -1.15780301	      0.95041190	      0.01013676	     15.76741601	      0.42009098	     -2.75073025	    -29.42914325	     13.28823663	      0.33194477	     10.07158420	     -1.31393167	     -2.62964821	    -22.17566442	     15.58446720	     -4.45934058	     -5.75368505	      0.54097607	     -0.42611242
      1.30000000	     -4.35198852	     -2.00650522	     -1.31819222	     -1.15689545	      0.95018409	      0.00898674	     16.98835279	      0.05855687	     -2.85637840	    -31.93438970	     12.95806579	      0.66120713	      9.77532246	     -1.02296853	     -2.67065333	    -22.08705094	     15.68332074	     -4.40755264	     -6.09042686	      0.26704857	     -0.65646474
      1.31000000	     -4.04482678	     -1.80662507	     -1.24253158	     -1.15580786	      0.95021982	      0.00792436	     18.07567162	     -0.30371923	     -3.02588879	    -34.41605383	     12.53312438	      0.74405047	      9.28939150	     -0.73046127	     -2.66573711	    -21.92906025	     15.73094143	     -4.35528943	     -6.57772391	     -0.00177262	     -0.91194329
